<svg width="177" height="82" viewBox="0 0 177 82" fill="none" xmlns="http://www.w3.org/2000/svg">
<g clip-path="url(#clip0_666_4236)">
<g clip-path="url(#clip1_666_4236)">
<g opacity="0.6">
<path opacity="0.5" d="M33.976 7.96472C34.2926 8.84288 34.3702 9.7894 34.2007 10.7074C34.0312 11.6253 33.6208 12.4818 33.0115 13.189C37.591 14.2701 41.6139 16.9956 44.3159 20.8478C47.0179 24.7 48.2109 29.4105 47.6682 34.0845C47.1255 38.7584 44.8849 43.0703 41.3721 46.2008C37.8592 49.3314 33.3189 51.0626 28.6135 51.0657V56.3755C34.6458 56.3772 40.4667 54.1534 44.9615 50.1302C49.4562 46.107 52.3087 40.5671 52.9729 34.5714C53.637 28.5758 52.066 22.5459 48.5608 17.6365C45.0556 12.7271 39.8625 9.28334 33.976 7.96472Z" fill="url(#paint0_linear_666_4236)"/>
<path d="M33.976 7.96472C34.2926 8.84288 34.3702 9.7894 34.2007 10.7074C34.0312 11.6253 33.6208 12.4818 33.0115 13.189C37.591 14.2701 41.6139 16.9956 44.3159 20.8478C47.0179 24.7 48.2109 29.4105 47.6682 34.0845C47.1255 38.7584 44.8849 43.0703 41.3721 46.2008C37.8592 49.3314 33.3189 51.0626 28.6135 51.0657V56.3755C34.6458 56.3772 40.4667 54.1534 44.9615 50.1302C49.4562 46.107 52.3087 40.5671 52.9729 34.5714C53.637 28.5758 52.066 22.5459 48.5608 17.6365C45.0556 12.7271 39.8625 9.28334 33.976 7.96472Z" fill="url(#paint1_linear_666_4236)" fill-opacity="0.7"/>
</g>
<path fill-rule="evenodd" clip-rule="evenodd" d="M28.4437 6.81783H55.1695V-0.261841H1.71094V6.81783H22.9989C18.2642 7.85211 13.882 10.2232 10.4018 13.7034C5.61675 18.4884 2.92856 24.9783 2.92856 31.7453C2.92856 38.5124 5.61675 45.0023 10.4018 49.7873C15.1868 54.5723 21.6766 57.2605 28.4437 57.2605H31.9835V53.7206V46.2304H24.9039V49.8379C21.3322 49.139 18.0188 47.3921 15.4079 44.7812C11.9505 41.3239 10.0082 36.6347 10.0082 31.7453C10.0082 26.8559 11.9505 22.1668 15.4079 18.7095C18.8652 15.2522 23.5543 13.3099 28.4437 13.3099V6.81783Z" fill="url(#paint2_linear_666_4236)"/>
<path d="M17.2859 35.8002L24.7195 25.7288L31.0912 31.4839L39.2329 20.9329M34.9851 19.871H39.9408V24.8267" stroke="#FFFEFE" stroke-opacity="0.5" stroke-width="1.41593"/>
<path fill-rule="evenodd" clip-rule="evenodd" d="M27.8488 19.6642H29.3779V24.7614H30.3972V38.0142H29.3779V42.092H27.8488V38.0142H26.8291V24.7614H27.8488V19.6642ZM34.4754 26.2907H34.9853V35.9754H34.4754V39.0336H32.9462V35.9754H32.4367V26.2907H32.9462V22.7225H34.4754V26.2907ZM24.7906 26.2907H24.281V22.7225H22.7519V26.2907H22.2419V35.9754H22.7519V39.0336H24.281V35.9754H24.7906V26.2907Z" fill="white"/>
<path d="M28.7905 13.8337C31.1952 13.8337 33.1445 11.8844 33.1445 9.47973C33.1445 7.07508 31.1952 5.12573 28.7905 5.12573C26.3859 5.12573 24.4365 7.07508 24.4365 9.47973C24.4365 11.8844 26.3859 13.8337 28.7905 13.8337Z" fill="white" stroke="#252533" stroke-width="2.83187" stroke-miterlimit="10"/>
</g>
<path d="M70.9312 51.4779H72.3715V57.2394H75.7537V58.349H70.9312V51.4779ZM76.3909 51.4779H81.3201V52.5982H77.8312V54.3587H80.9253V55.4683H77.8312V57.2394H81.3201V58.349H76.3909V51.4779ZM84.7307 51.4779H86.3098L88.9238 58.349H87.4301L86.7792 56.6952H84.2506L83.6104 58.349H82.106L84.7307 51.4779ZM86.5658 55.5856L85.5096 52.8223L84.464 55.5856H86.5658ZM89.9255 51.4779H93.2223C93.9905 51.4779 94.5631 51.6807 94.9401 52.0861C95.3242 52.4915 95.5163 53.057 95.5163 53.7825C95.5163 54.2449 95.3953 54.6432 95.1535 54.9775C94.9188 55.3118 94.5845 55.5536 94.1506 55.703C94.2573 55.7955 94.3426 55.895 94.4066 56.0017C94.4778 56.1013 94.5525 56.2436 94.6307 56.4285L95.4629 58.349H93.9692L93.1583 56.5032C93.0872 56.3396 93.0054 56.2294 92.9129 56.1725C92.8276 56.1084 92.6889 56.0764 92.4968 56.0764H91.3659V58.349H89.9255V51.4779ZM92.8489 54.8815C93.2401 54.8815 93.5389 54.7961 93.7451 54.6254C93.9514 54.4476 94.0545 54.1666 94.0545 53.7825C94.0545 53.3984 93.9621 53.1175 93.7771 52.9396C93.5922 52.7618 93.3113 52.6729 92.9343 52.6729H91.3659V54.8815H92.8489ZM96.5209 51.4779H97.7692L101.023 56.0551V51.4779H102.464V58.349H101.215L97.9613 53.7718V58.349H96.5209V51.4779ZM107.524 51.4779H108.964V58.349H107.524V51.4779ZM110.181 51.4779H111.429L114.683 56.0551V51.4779H116.123V58.349H114.875L111.621 53.7718V58.349H110.181V51.4779ZM117.125 51.4779H118.63L120.529 56.7379L122.439 51.4779H123.943L121.329 58.349H119.75L117.125 51.4779ZM124.945 51.4779H129.874V52.5982H126.385V54.3587H129.479V55.4683H126.385V57.2394H129.874V58.349H124.945V51.4779ZM133.007 58.4557C132.09 58.4557 131.35 58.3312 130.788 58.0823V56.8126C131.108 56.9406 131.449 57.0438 131.812 57.122C132.175 57.2003 132.527 57.2394 132.868 57.2394C133.402 57.2394 133.775 57.1896 133.989 57.09C134.209 56.9904 134.32 56.7842 134.32 56.4712C134.32 56.2649 134.27 56.1013 134.17 55.9804C134.071 55.8595 133.907 55.7563 133.679 55.671C133.452 55.5785 133.096 55.4647 132.612 55.3296C131.894 55.1304 131.389 54.8815 131.097 54.5827C130.806 54.284 130.66 53.8714 130.66 53.3451C130.66 52.712 130.891 52.2248 131.353 51.8834C131.816 51.542 132.488 51.3712 133.37 51.3712C133.768 51.3712 134.145 51.3997 134.501 51.4566C134.864 51.5064 135.159 51.574 135.386 51.6593V52.929C134.803 52.7085 134.195 52.5982 133.562 52.5982C133.078 52.5982 132.716 52.6516 132.474 52.7583C132.239 52.865 132.122 53.0606 132.122 53.3451C132.122 53.5229 132.164 53.6652 132.25 53.7718C132.342 53.8785 132.491 53.9746 132.698 54.0599C132.911 54.1382 133.238 54.2342 133.679 54.348C134.476 54.5614 135.027 54.8388 135.333 55.1802C135.639 55.5145 135.792 55.9448 135.792 56.4712C135.792 57.09 135.557 57.5772 135.088 57.9329C134.618 58.2814 133.925 58.4557 133.007 58.4557ZM138.206 52.5875H136.094V51.4779H141.749V52.5875H139.647V58.349H138.206V52.5875ZM148.073 52.5875H145.961V51.4779H151.616V52.5875H149.514V58.349H148.073V52.5875ZM152.41 51.4779H155.707C156.475 51.4779 157.048 51.6807 157.425 52.0861C157.809 52.4915 158.001 53.057 158.001 53.7825C158.001 54.2449 157.88 54.6432 157.638 54.9775C157.403 55.3118 157.069 55.5536 156.635 55.703C156.742 55.7955 156.827 55.895 156.891 56.0017C156.962 56.1013 157.037 56.2436 157.115 56.4285L157.947 58.349H156.454L155.643 56.5032C155.572 56.3396 155.49 56.2294 155.397 56.1725C155.312 56.1084 155.173 56.0764 154.981 56.0764H153.85V58.349H152.41V51.4779ZM155.333 54.8815C155.725 54.8815 156.023 54.7961 156.23 54.6254C156.436 54.4476 156.539 54.1666 156.539 53.7825C156.539 53.3984 156.447 53.1175 156.262 52.9396C156.077 52.7618 155.796 52.6729 155.419 52.6729H153.85V54.8815H155.333ZM160.937 51.4779H162.516L165.13 58.349H163.637L162.986 56.6952H160.457L159.817 58.349H158.313L160.937 51.4779ZM162.773 55.5856L161.716 52.8223L160.671 55.5856H162.773ZM166.132 51.4779H169.013C170.066 51.4779 170.848 51.7518 171.36 52.2995C171.872 52.8401 172.128 53.7221 172.128 54.9455C172.128 56.112 171.872 56.9727 171.36 57.5275C170.848 58.0752 170.066 58.349 169.013 58.349H166.132V51.4779ZM168.81 57.2394C169.244 57.2394 169.593 57.1754 169.856 57.0473C170.119 56.9193 170.318 56.6881 170.453 56.3538C170.596 56.0195 170.667 55.5501 170.667 54.9455C170.667 54.3338 170.603 53.8643 170.475 53.5371C170.354 53.2099 170.162 52.9859 169.898 52.865C169.635 52.7369 169.273 52.6729 168.81 52.6729H167.573V57.2394H168.81ZM173.134 51.4779H178.063V52.5982H174.574V54.3587H177.668V55.4683H174.574V57.2394H178.063V58.349H173.134V51.4779Z" fill="#ECECEC"/>
<path d="M111.538 41.5111H72.5642V0.716368H78.3961V35.6792H111.538V41.5111ZM122.889 41.5111H117.057V0.716368H122.889V41.5111ZM154.836 41.5111H149.005V6.54825H128.38V0.716368H175.461V6.54825H154.836V41.5111Z" fill="url(#paint3_linear_666_4236)"/>
</g>
<rect width="177" height="16.5799" transform="translate(0 65.2268)" fill="white" fill-opacity="0.1"/>
<path d="M7.42345 75.5167V71.1881H9.35249C9.68408 71.1881 9.95741 71.2509 10.1725 71.3763C10.3876 71.5018 10.5467 71.6743 10.6497 71.8939C10.7528 72.109 10.8043 72.3554 10.8043 72.6332C10.8043 73.0634 10.6699 73.4084 10.401 73.6683C10.1367 73.9282 9.77818 74.0582 9.3256 74.0582H8.15608V75.5167H7.42345ZM8.15608 73.4801H9.19117C9.48243 73.4801 9.702 73.404 9.84987 73.2516C9.99774 73.0993 10.0717 72.8931 10.0717 72.6332C10.0717 72.3554 9.99998 72.1403 9.85659 71.988C9.71768 71.8356 9.50708 71.7595 9.22478 71.7595H8.15608V73.4801ZM15.8577 75.5839C15.1722 75.5839 14.6591 75.4047 14.3185 75.0462C13.978 74.6833 13.8077 74.1232 13.8077 73.3659C13.8077 72.5772 13.978 72.0059 14.3185 71.6519C14.6591 71.2979 15.1722 71.1209 15.8577 71.1209C16.5478 71.1209 17.0609 71.2979 17.3969 71.6519C17.7375 72.0059 17.9078 72.5772 17.9078 73.3659C17.9078 74.1232 17.7375 74.6833 17.3969 75.0462C17.0609 75.4047 16.5478 75.5839 15.8577 75.5839ZM15.8577 74.9656C16.3103 74.9656 16.6419 74.8423 16.8525 74.5959C17.0676 74.345 17.1751 73.935 17.1751 73.3659C17.1751 72.7654 17.0676 72.3465 16.8525 72.109C16.6419 71.867 16.3103 71.746 15.8577 71.746C15.4097 71.746 15.0781 71.867 14.863 72.109C14.6524 72.3465 14.5471 72.7654 14.5471 73.3659C14.5471 73.935 14.6524 74.345 14.863 74.5959C15.0781 74.8423 15.4097 74.9656 15.8577 74.9656ZM21.7877 75.5167L20.7795 71.1881H21.4987L22.2313 74.4346L23.0513 71.7124V71.1881H23.6495L24.5704 74.4346L25.3164 71.1881H26.0289L25.0274 75.5167H24.3082L23.4412 72.4854L22.5203 75.5167H21.7877ZM29.3032 75.5167V71.1881H32.3211V71.7595H30.0358V73.0701H32.0724V73.6347H30.0358V74.9521H32.3211V75.5167H29.3032ZM35.5527 75.5167V71.1881H37.5423C38.0262 71.1881 38.378 71.3136 38.5975 71.5645C38.8216 71.811 38.9336 72.1471 38.9336 72.5728C38.9336 72.8775 38.8574 73.1374 38.7051 73.3524C38.5527 73.5675 38.3332 73.7176 38.0464 73.8028C38.127 73.861 38.1898 73.9238 38.2346 73.991C38.2794 74.0582 38.3242 74.1478 38.369 74.2598L38.9134 75.5167H38.1606L37.6297 74.3069C37.5804 74.1904 37.5199 74.1075 37.4482 74.0582C37.381 74.0089 37.2645 73.9842 37.0987 73.9842H36.2854V75.5167H35.5527ZM36.2854 73.3928H37.3474C37.6117 73.3928 37.8201 73.3278 37.9724 73.1978C38.1248 73.0679 38.201 72.8595 38.201 72.5728C38.201 72.0306 37.9388 71.7595 37.4146 71.7595H36.2854V73.3928ZM42.2093 75.5167V71.1881H45.2272V71.7595H42.9419V73.0701H44.9785V73.6347H42.9419V74.9521H45.2272V75.5167H42.2093ZM48.4589 75.5167V71.1881H50.2132C50.8539 71.1881 51.3289 71.3584 51.6381 71.699C51.9473 72.035 52.1019 72.5952 52.1019 73.3793C52.1019 74.1187 51.9495 74.6609 51.6448 75.0059C51.3401 75.3464 50.8629 75.5167 50.2132 75.5167H48.4589ZM49.1915 74.9521H50.0989C50.3812 74.9521 50.6164 74.9118 50.8046 74.8311C50.9928 74.746 51.134 74.5892 51.2281 74.3606C51.3222 74.1321 51.3692 73.805 51.3692 73.3793C51.3692 72.9536 51.3267 72.6243 51.2415 72.3913C51.1564 72.1583 51.0197 71.9947 50.8315 71.9006C50.6478 71.8065 50.4036 71.7595 50.0989 71.7595H49.1915V74.9521ZM59.4812 75.5167V71.1881H61.5782C62.0084 71.1881 62.3266 71.289 62.5327 71.4906C62.7388 71.6923 62.8419 71.9768 62.8419 72.3442C62.8419 72.5772 62.7948 72.7744 62.7007 72.9357C62.6066 73.0925 62.4812 73.2113 62.3243 73.2919C62.5349 73.3502 62.7007 73.4555 62.8217 73.6078C62.9472 73.7557 63.0099 73.9753 63.0099 74.2665C63.0099 74.6878 62.8956 75.0014 62.6671 75.2075C62.4431 75.4137 62.1115 75.5167 61.6723 75.5167H59.4812ZM60.2138 73.0365H61.4774C61.7239 73.0365 61.8986 72.9805 62.0017 72.8685C62.1092 72.752 62.163 72.5974 62.163 72.4047C62.163 72.1807 62.1092 72.0149 62.0017 71.9073C61.8941 71.7953 61.6925 71.7393 61.3968 71.7393H60.2138V73.0365ZM60.2138 74.979H61.5178C61.7776 74.979 61.9681 74.9252 62.0891 74.8177C62.2101 74.7057 62.2705 74.513 62.2705 74.2397C62.2705 74.0156 62.2101 73.8498 62.0891 73.7423C61.9726 73.6303 61.7575 73.5742 61.4438 73.5742H60.2138V74.979ZM67.1883 75.5167V73.9103L65.6357 71.1881H66.3952L67.5513 73.2919L68.7074 71.1881H69.4669L67.9143 73.9103V75.5167H67.1883ZM77.9609 75.5167V71.7595H76.5762V71.1881H80.0714V71.7595H78.6935V75.5167H77.9609ZM83.2127 75.5167V71.1881H83.9453V73.0701H86.0289V71.1881H86.7616V75.5167H86.0289V73.6347H83.9453V75.5167H83.2127ZM90.1646 75.5167V71.1881H93.1825V71.7595H90.8972V73.0701H92.9338V73.6347H90.8972V74.9521H93.1825V75.5167H90.1646ZM100.517 75.5167V71.1881H101.25V75.5167H100.517ZM104.653 75.5167V71.1881H105.299L107.557 74.3741V71.1881H108.283V75.5167H107.638L105.386 72.3375V75.5167H104.653ZM113.118 75.5167L111.464 71.1881H112.224L113.521 74.7303L114.818 71.1881H115.578L113.938 75.5167H113.118ZM118.754 75.5167V71.1881H121.772V71.7595H119.487V73.0701H121.523V73.6347H119.487V74.9521H121.772V75.5167H118.754ZM126.183 75.5839C125.623 75.5839 125.173 75.5122 124.832 75.3689V74.7236C125.025 74.7953 125.231 74.8535 125.45 74.8984C125.675 74.9432 125.896 74.9656 126.116 74.9656C126.461 74.9656 126.719 74.9252 126.889 74.8446C127.064 74.7639 127.151 74.6026 127.151 74.3606C127.151 74.2128 127.115 74.094 127.043 74.0044C126.972 73.9148 126.853 73.8386 126.687 73.7759C126.521 73.7087 126.293 73.6392 126.002 73.5675C125.536 73.4465 125.209 73.2942 125.02 73.1105C124.832 72.9223 124.738 72.6646 124.738 72.3375C124.738 71.9566 124.877 71.6586 125.155 71.4436C125.433 71.2285 125.847 71.1209 126.398 71.1209C126.649 71.1209 126.884 71.1389 127.104 71.1747C127.328 71.2106 127.503 71.2509 127.628 71.2957V71.9409C127.288 71.811 126.911 71.746 126.499 71.746C126.176 71.746 125.925 71.7886 125.746 71.8737C125.567 71.9589 125.477 72.1135 125.477 72.3375C125.477 72.4675 125.509 72.5728 125.571 72.6534C125.634 72.7341 125.742 72.8035 125.894 72.8618C126.051 72.92 126.266 72.985 126.539 73.0567C126.893 73.1463 127.167 73.2539 127.359 73.3793C127.557 73.5003 127.693 73.6437 127.769 73.8095C127.85 73.9708 127.89 74.1545 127.89 74.3606C127.89 74.7415 127.749 75.0417 127.467 75.2613C127.185 75.4764 126.757 75.5839 126.183 75.5839ZM132.008 75.5167V71.7595H130.624V71.1881H134.119V71.7595H132.741V75.5167H132.008ZM139.11 75.5839C138.424 75.5839 137.911 75.4047 137.571 75.0462C137.23 74.6833 137.06 74.1232 137.06 73.3659C137.06 72.5772 137.23 72.0059 137.571 71.6519C137.911 71.2979 138.424 71.1209 139.11 71.1209C139.8 71.1209 140.313 71.2979 140.649 71.6519C140.99 72.0059 141.16 72.5772 141.16 73.3659C141.16 74.1232 140.99 74.6833 140.649 75.0462C140.313 75.4047 139.8 75.5839 139.11 75.5839ZM139.11 74.9656C139.563 74.9656 139.894 74.8423 140.105 74.5959C140.32 74.345 140.427 73.935 140.427 73.3659C140.427 72.7654 140.32 72.3465 140.105 72.109C139.894 71.867 139.563 71.746 139.11 71.746C138.662 71.746 138.33 71.867 138.115 72.109C137.905 72.3465 137.799 72.7654 137.799 73.3659C137.799 73.935 137.905 74.345 138.115 74.5959C138.33 74.8423 138.662 74.9656 139.11 74.9656ZM144.429 75.5167V71.1881H146.418C146.902 71.1881 147.254 71.3136 147.473 71.5645C147.697 71.811 147.809 72.1471 147.809 72.5728C147.809 72.8775 147.733 73.1374 147.581 73.3524C147.429 73.5675 147.209 73.7176 146.922 73.8028C147.003 73.861 147.066 73.9238 147.11 73.991C147.155 74.0582 147.2 74.1478 147.245 74.2598L147.789 75.5167H147.036L146.505 74.3069C146.456 74.1904 146.396 74.1075 146.324 74.0582C146.257 74.0089 146.14 73.9842 145.974 73.9842H145.161V75.5167H144.429ZM145.161 73.3928H146.223C146.488 73.3928 146.696 73.3278 146.848 73.1978C147.001 73.0679 147.077 72.8595 147.077 72.5728C147.077 72.0306 146.815 71.7595 146.29 71.7595H145.161V73.3928ZM157.218 75.5839C156.506 75.5839 155.966 75.389 155.598 74.9992C155.235 74.6093 155.054 74.0828 155.054 73.4196C155.054 72.9447 155.13 72.5369 155.282 72.1964C155.439 71.8513 155.677 71.5869 155.995 71.4032C156.313 71.215 156.719 71.1209 157.211 71.1209C157.462 71.1209 157.691 71.1411 157.897 71.1814C158.108 71.2173 158.303 71.2666 158.482 71.3293V71.9678C158.303 71.8961 158.11 71.8424 157.904 71.8065C157.702 71.7662 157.489 71.746 157.265 71.746C156.727 71.746 156.347 71.8894 156.123 72.1762C155.903 72.463 155.793 72.8775 155.793 73.4196C155.793 73.926 155.914 74.3114 156.156 74.5757C156.398 74.8356 156.772 74.9656 157.279 74.9656C157.485 74.9656 157.691 74.9499 157.897 74.9185C158.108 74.8827 158.305 74.8289 158.488 74.7572V75.4025C158.309 75.4607 158.114 75.5055 157.904 75.5369C157.698 75.5683 157.469 75.5839 157.218 75.5839ZM163.537 75.5839C162.852 75.5839 162.339 75.4047 161.998 75.0462C161.658 74.6833 161.487 74.1232 161.487 73.3659C161.487 72.5772 161.658 72.0059 161.998 71.6519C162.339 71.2979 162.852 71.1209 163.537 71.1209C164.227 71.1209 164.74 71.2979 165.076 71.6519C165.417 72.0059 165.587 72.5772 165.587 73.3659C165.587 74.1232 165.417 74.6833 165.076 75.0462C164.74 75.4047 164.227 75.5839 163.537 75.5839ZM163.537 74.9656C163.99 74.9656 164.321 74.8423 164.532 74.5959C164.747 74.345 164.855 73.935 164.855 73.3659C164.855 72.7654 164.747 72.3465 164.532 72.109C164.321 71.867 163.99 71.746 163.537 71.746C163.089 71.746 162.758 71.867 162.543 72.109C162.332 72.3465 162.227 72.7654 162.227 73.3659C162.227 73.935 162.332 74.345 162.543 74.5959C162.758 74.8423 163.089 74.9656 163.537 74.9656ZM168.721 75.5167V74.9454H169.34V75.5167H168.721Z" fill="white"/>
<defs>
<linearGradient id="paint0_linear_666_4236" x1="27.0202" y1="19.0124" x2="49.5303" y2="53.9823" gradientUnits="userSpaceOnUse">
<stop stop-color="#FDFDFD"/>
<stop offset="0.09" stop-color="#E5E5E5"/>
<stop offset="0.29" stop-color="#A7A7A7"/>
<stop offset="0.3" stop-color="#AAAAAA"/>
<stop offset="0.42" stop-color="#D5D5D5"/>
<stop offset="0.52" stop-color="#EFEFEF"/>
<stop offset="0.58" stop-color="#F9F9F9"/>
<stop offset="0.62" stop-color="#F3F3F3"/>
<stop offset="0.68" stop-color="#E2E2E2"/>
<stop offset="0.74" stop-color="#C6C6C6"/>
<stop offset="0.8" stop-color="#A7A7A7"/>
<stop offset="0.82" stop-color="#ADADAD"/>
<stop offset="0.9" stop-color="#D9D9D9"/>
<stop offset="0.96" stop-color="#F3F3F3"/>
<stop offset="1" stop-color="#FDFDFD"/>
</linearGradient>
<linearGradient id="paint1_linear_666_4236" x1="24.3834" y1="36.1632" x2="34.7167" y2="31.7751" gradientUnits="userSpaceOnUse">
<stop/>
<stop offset="1" stop-opacity="0"/>
</linearGradient>
<linearGradient id="paint2_linear_666_4236" x1="-20.2361" y1="-10.8813" x2="28.6137" y2="57.0835" gradientUnits="userSpaceOnUse">
<stop stop-color="#A7A7A7"/>
<stop offset="0.3" stop-color="#AAAAAA"/>
<stop offset="0.723958" stop-color="#F3F3F3"/>
<stop offset="1" stop-color="#A7A7A7"/>
</linearGradient>
<linearGradient id="paint3_linear_666_4236" x1="-1.52734" y1="21.511" x2="213.17" y2="21.511" gradientUnits="userSpaceOnUse">
<stop stop-color="#A7A7A7"/>
<stop offset="0.3" stop-color="#AAAAAA"/>
<stop offset="0.723958" stop-color="#F3F3F3"/>
<stop offset="1" stop-color="#A7A7A7"/>
</linearGradient>
<clipPath id="clip0_666_4236">
<rect width="175.128" height="61.6078" fill="white" transform="translate(1.87183)"/>
</clipPath>
<clipPath id="clip1_666_4236">
<rect width="53.4586" height="57.5223" fill="white" transform="translate(1.71094 -0.261841)"/>
</clipPath>
</defs>
</svg>
